Genre:Action | Adventure | Thriller
Language:English
IMDb:http://www.imdb.com/title/tt1320253/
Source Video:TELESYNC RUS.Thanks
Audio Source:Imagine/OWN.Thanks
Subtitles: ROMANA

Complete name : The.Expendables.2010.TELESYNC.XviD.FEEL-FREE
Format : AVI
Format/Info : Audio Video Interleave
File size : 1.11 GiB
Duration : 1h 34mn
Overall bit rate : 1 687 Kbps
Writing library : VirtualDub build 32817/release
Video #0
ID : 0
Format : MPEG-4 Visual
Format profile : AdvancedSimple@L5
Format settings, BVOP : Yes
Format settings, QPel : No
Format settings, GMC : No warppoints
Format settings, Matrix : Default (H.263)
Muxing mode : Packed bitstream
Codec ID : XVID
Codec ID/Hint : XviD
Duration : 1h 34mn
Bit rate : 1 550 Kbps
Width : 688 pixels
Height : 288 pixels
Display aspect ratio : 2.35:1
Frame rate : 25.000 fps
Resolution : 24 bits
Colorimetry : 4:2:0
Scan type : Progressive
Bits/(Pixel*Frame) : 0.313
Stream size : 1.02 GiB (92%)
Writing library : XviD 1.3.0.dev55
Audio #1
ID : 1
Format : MPEG Audio
Format version : Version 1
Format profile : Layer 3
Codec ID : 55
Codec ID/Hint : MP3
Duration : 1h 34mn
Bit rate mode : Constant
Bit rate : 128 Kbps
Channel(s) : 2 channels
Sampling rate : 48.0 KHz
Resolution : 16 bits
Stream size : 86.5 MiB (8%)
Alignment : Aligned on interleaves
Interleave, duration : 40 ms (1.00 video frame)
Interleave, preload duration : 504 ms
Plot:
A team of mercenaries head to South America on a mission to overthrow a dictator




 
http://thepiratebay.org/user/hiest





Screenshots:
 
http://www.starshare.ro/bitbucket/vlcsnap-2010-08-22-11h13m57s243.jpg
 
http://www.starshare.ro/bitbucket/expendables.avi_snapshot_00.37.06_%5B2010.08.22_11.17.41%5D.jpg
 
http://www.starshare.ro/bitbucket/expendables.avi_snapshot_00.50.55_%5B2010.08.22_11.18.24%5D.jpg
 
http://www.starshare.ro/bitbucket/vlcsnap-2010-08-22-11h11m42s179.jpg
 
http://www.starshare.ro/bitbucket/vlcsnap-2010-08-22-11h13m08s17.jpg